<mxfile compressed="false" host="Electron" modified="2021-09-10T13:21:14.514Z" agent="5.0 (Windows NT 10.0; Win64; x64) AppleWebKit/537.36 (KHTML, like Gecko) draw.io/15.1.3 Chrome/89.0.4389.128 Electron/12.1.0 Safari/537.36" version="15.1.3" etag="C9RmtM11sTBC7a_0_VmA" type="device">
  <diagram id="Page-2" name="Page-2">
    <mxGraphModel dx="852" dy="494" grid="1" gridSize="10" guides="1" tooltips="1" connect="1" arrows="1" fold="1" page="1" pageScale="1" pageWidth="827" pageHeight="1169" math="0" shadow="1">
      <root>
        <mxCell id="0" />
        <mxCell id="1" parent="0" />
        <object label="R1" id="a">
          <mxCell style="shape=mxgraph.cisco.routers.atm_router;html=1;pointerEvents=1;dashed=0;fillColor=#036897;strokeColor=#ffffff;strokeWidth=2;verticalLabelPosition=bottom;verticalAlign=top;align=center;outlineConnect=0;" parent="1" vertex="1">
            <mxGeometry x="101" y="192" width="78" height="53" as="geometry" />
          </mxCell>
        </object>
        <object label="CE12800" id="R2">
          <mxCell style="rounded=1;whiteSpace=wrap;html=1;" parent="1" vertex="1">
            <mxGeometry x="354" y="185" width="120" height="60" as="geometry" />
          </mxCell>
        </object>
        <object label="R3" make="VendorX" role="access" id="c">
          <mxCell style="rounded=1;whiteSpace=wrap;html=1;" parent="1" vertex="1">
            <mxGeometry x="199" y="8" width="120" height="60" as="geometry" />
          </mxCell>
        </object>
        <object label="DF" role="uplink" id="2a48e71e70a2c1a486378f1f32e9009a">
          <mxCell style="endArrow=none;" parent="1" source="a" target="R2" edge="1">
            <mxGeometry relative="1" as="geometry" />
          </mxCell>
        </object>
        <object label="Copper" id="e61b7fe23faae730f87ef0ee21500745">
          <mxCell style="endArrow=none;" parent="1" source="R2" target="c" edge="1">
            <mxGeometry relative="1" as="geometry" />
          </mxCell>
        </object>
        <object label="ZR" id="714c4296dcfe8810cf4181174b56fb51">
          <mxCell style="endArrow=none;" parent="1" source="c" target="a" edge="1">
            <mxGeometry relative="1" as="geometry" />
          </mxCell>
        </object>
      </root>
    </mxGraphModel>
  </diagram>
</mxfile>
